# Blender v2.73 (sub 0) OBJ File: 'test3.blend'
# www.blender.org
mtllib test4.mtl
o Cube
v 1.000000 -1.000000 -1.000000
v 1.000000 -1.000000 1.000000
v -1.000000 -1.000000 1.000000
v -1.000000 -1.000000 -1.000000
v -1.000000 1.000000 1.000000
v -1.000000 1.000000 -1.000000
v 1.000000 -0.685920 -1.000000
v 1.000000 -0.685920 1.000000
v -1.000000 -0.685920 1.000000
v -1.000000 -0.685920 -1.000000
v -0.666927 -1.000000 -1.000000
v -0.666927 -1.000000 1.000000
v -0.666927 1.000000 -1.000000
v -0.666927 1.000000 1.000000
v -0.666927 -0.685920 -1.000000
v -0.666927 -0.685920 1.000000
v 1.000000 -0.634387 -0.999999
v 0.999999 -0.634387 1.000001
v -0.578651 -0.328755 -1.000000
v -0.578651 -0.328755 1.000000
v 1.000000 -0.634387 -0.777777
v 1.000000 -0.634387 -0.555555
v 1.000000 -0.634387 -0.333333
v 1.000000 -0.634387 -0.111111
v 1.000000 -0.634387 0.111112
v 1.000000 -0.634387 0.333334
v 1.000000 -0.634387 0.555556
v 1.000000 -0.634387 0.777778
v 0.824595 -0.600428 -1.000000
v 0.649189 -0.566469 -1.000000
v 0.473783 -0.532510 -1.000000
v 0.298378 -0.498551 -1.000000
v 0.122972 -0.464592 -1.000000
v -0.052434 -0.430633 -1.000000
v -0.227839 -0.396673 -1.000000
v -0.403245 -0.362714 -1.000000
v 0.824594 -0.600428 1.000000
v 0.649188 -0.566469 1.000000
v 0.473782 -0.532510 1.000000
v 0.298377 -0.498551 1.000000
v 0.122971 -0.464592 1.000000
v -0.052434 -0.430633 1.000000
v -0.227840 -0.396673 1.000000
v -0.403246 -0.362714 1.000000
v -0.578651 -0.328755 -0.777778
v -0.578651 -0.328755 -0.555556
v -0.578651 -0.328755 -0.333333
v -0.578651 -0.328755 -0.111111
v -0.578651 -0.328755 0.111111
v -0.578651 -0.328755 0.333333
v -0.578651 -0.328755 0.555555
v -0.578651 -0.328755 0.777778
v 0.824595 -0.600428 -0.777777
v 0.824595 -0.600428 -0.555555
v 0.824594 -0.600428 -0.333333
v 0.824594 -0.600428 -0.111111
v 0.824594 -0.600428 0.111112
v 0.824594 -0.600428 0.333334
v 0.824594 -0.600428 0.555556
v 0.824594 -0.600428 0.777778
v 0.649189 -0.566469 -0.777777
v 0.649189 -0.566469 -0.555555
v 0.649189 -0.566469 -0.333333
v 0.649189 -0.566469 -0.111111
v 0.649189 -0.566469 0.111111
v 0.649188 -0.566469 0.333334
v 0.649188 -0.566469 0.555556
v 0.649188 -0.566469 0.777778
v 0.473783 -0.532510 -0.777777
v 0.473783 -0.532510 -0.555555
v 0.473783 -0.532510 -0.333333
v 0.473783 -0.532510 -0.111111
v 0.473783 -0.532510 0.111111
v 0.473783 -0.532510 0.333334
v 0.473783 -0.532510 0.555556
v 0.473783 -0.532510 0.777778
v 0.298378 -0.498551 -0.777777
v 0.298378 -0.498551 -0.555555
v 0.298377 -0.498551 -0.333333
v 0.298377 -0.498551 -0.111111
v 0.298377 -0.498551 0.111111
v 0.298377 -0.498551 0.333334
v 0.298377 -0.498551 0.555556
v 0.298377 -0.498551 0.777778
v 0.122972 -0.464592 -0.777778
v 0.122972 -0.464592 -0.555555
v 0.122972 -0.464592 -0.333333
v 0.122972 -0.464592 -0.111111
v 0.122972 -0.464592 0.111111
v 0.122971 -0.464592 0.777778
v -0.052434 -0.430633 -0.777778
v -0.052434 -0.430633 -0.555555
v -0.052434 -0.430633 -0.333333
v -0.052434 -0.430633 -0.111111
v -0.052434 -0.430633 0.111111
v -0.052434 -0.430633 0.777778
v -0.227839 -0.396673 -0.777778
v -0.227839 -0.396673 -0.555555
v -0.227840 -0.396673 -0.333333
v -0.227840 -0.396673 -0.111111
v -0.227840 -0.396673 0.111111
v -0.227840 -0.396673 0.333333
v -0.227840 -0.396673 0.555556
v -0.227840 -0.396673 0.777778
v -0.403245 -0.362714 -0.777778
v -0.403245 -0.362714 -0.555555
v -0.403245 -0.362714 -0.333333
v -0.403245 -0.362714 -0.111111
v -0.403245 -0.362714 0.111111
v -0.403245 -0.362714 0.333333
v -0.403245 -0.362714 0.555556
v -0.403246 -0.362714 0.777778
v -0.208832 -0.298496 -0.777778
v -0.208832 -0.298496 -0.555555
v -0.384238 -0.264537 -0.777778
v -0.384238 -0.264537 -0.555555
v 0.141979 -0.366415 -0.777778
v 0.141979 -0.366415 -0.555555
v -0.033426 -0.332456 -0.777778
v -0.033426 -0.332456 -0.555555
v -0.208832 -0.298496 -0.333333
v -0.208832 -0.298496 -0.111111
v -0.384238 -0.264537 -0.333333
v -0.384238 -0.264537 -0.111111
v 0.141979 -0.366415 -0.333333
v 0.141979 -0.366415 -0.111111
v -0.033426 -0.332456 -0.333333
v -0.033427 -0.332456 -0.111111
v 0.492791 -0.434333 -0.333333
v 0.492790 -0.434333 -0.111111
v 0.317385 -0.400374 -0.333333
v 0.317385 -0.400374 -0.111111
v 0.492791 -0.434333 -0.777777
v 0.492791 -0.434333 -0.555555
v 0.317385 -0.400374 -0.777777
v 0.317385 -0.400374 -0.555555
v 0.843602 -0.502251 -0.777777
v 0.843602 -0.502251 -0.555555
v 0.843602 -0.502251 -0.333333
v 0.843602 -0.502251 -0.111111
v 0.668196 -0.468292 -0.777777
v 0.668196 -0.468292 -0.555555
v 0.668196 -0.468292 -0.333333
v 0.668196 -0.468292 -0.111111
v 0.290313 -0.540205 0.111111
v 0.290313 -0.540205 0.333334
v 0.290313 -0.540205 0.555556
v 0.290313 -0.540205 0.777778
v 0.114907 -0.506246 0.111111
v 0.114907 -0.506246 0.333333
v 0.114907 -0.506246 0.555556
v 0.114907 -0.506246 0.777778
v -0.060498 -0.472286 0.111111
v -0.060498 -0.472286 0.333333
v -0.060499 -0.472286 0.555556
v -0.060499 -0.472286 0.777778
v -0.235904 -0.438327 0.111111
v -0.235904 -0.438327 0.333333
v -0.235904 -0.438327 0.555556
v -0.235904 -0.438327 0.777778
v 0.824594 -0.600428 0.185186
v 0.824594 -0.600428 0.259260
v 0.824594 -0.600428 0.407408
v 0.824594 -0.600428 0.481482
v 0.824594 -0.600428 0.629630
v 0.824594 -0.600428 0.703704
v 0.649188 -0.566469 0.185186
v 0.649188 -0.566469 0.259260
v 0.649188 -0.566469 0.629630
v 0.649188 -0.566469 0.703704
v 0.473783 -0.532510 0.185185
v 0.473783 -0.532510 0.259260
v 0.473783 -0.532510 0.629630
v 0.473783 -0.532510 0.703704
v 0.298377 -0.498551 0.185185
v 0.298377 -0.498551 0.259259
v 0.298377 -0.498551 0.407408
v 0.298377 -0.498551 0.481482
v 0.298377 -0.498551 0.629630
v 0.298377 -0.498551 0.703704
v 0.707657 -0.577789 0.111112
v 0.766126 -0.589109 0.111112
v 0.707657 -0.577789 0.333334
v 0.766126 -0.589109 0.333334
v 0.707657 -0.577789 0.555556
v 0.766125 -0.589109 0.555556
v 0.707657 -0.577789 0.777778
v 0.766125 -0.589109 0.777778
v 0.532251 -0.543830 0.111111
v 0.590720 -0.555149 0.111111
v 0.532251 -0.543830 0.777778
v 0.590720 -0.555149 0.777778
v 0.356846 -0.509871 0.111111
v 0.415314 -0.521190 0.111111
v 0.356846 -0.509871 0.333334
v 0.415314 -0.521190 0.333334
v 0.356846 -0.509871 0.555556
v 0.415314 -0.521190 0.555556
v 0.356846 -0.509871 0.777778
v 0.415314 -0.521190 0.777778
v 0.415314 -0.521190 0.629630
v 0.415314 -0.521190 0.703704
v 0.356846 -0.509871 0.629630
v 0.356846 -0.509871 0.703704
v 0.415314 -0.521190 0.407408
v 0.415314 -0.521190 0.481482
v 0.356846 -0.509871 0.407408
v 0.356846 -0.509871 0.481482
v 0.415314 -0.521190 0.185185
v 0.415314 -0.521190 0.259260
v 0.356846 -0.509871 0.185185
v 0.356846 -0.509871 0.259259
v 0.590720 -0.555149 0.629630
v 0.590720 -0.555149 0.703704
v 0.532251 -0.543830 0.629630
v 0.532251 -0.543830 0.703704
v 0.590720 -0.555149 0.185186
v 0.590720 -0.555149 0.259260
v 0.532251 -0.543830 0.185186
v 0.532251 -0.543830 0.259260
v 0.766125 -0.589109 0.629630
v 0.766125 -0.589109 0.703704
v 0.707657 -0.577789 0.629630
v 0.707657 -0.577789 0.703704
v 0.766126 -0.589109 0.407408
v 0.766125 -0.589109 0.481482
v 0.707657 -0.577789 0.407408
v 0.707657 -0.577789 0.481482
v 0.766126 -0.589109 0.185186
v 0.766126 -0.589109 0.259260
v 0.707657 -0.577789 0.185186
v 0.707657 -0.577789 0.259260
v 0.677700 -0.419204 0.333334
v 0.677699 -0.419204 0.555556
v 0.502294 -0.385245 0.333334
v 0.502294 -0.385245 0.555556
v 0.677700 -0.419204 0.259260
v 0.677699 -0.419204 0.407408
v 0.677699 -0.419204 0.481482
v 0.677699 -0.419204 0.629630
v 0.502294 -0.385245 0.259260
v 0.502294 -0.385245 0.407408
v 0.502294 -0.385245 0.481482
v 0.502294 -0.385245 0.629630
v 0.736168 -0.430523 0.333334
v 0.736168 -0.430523 0.555556
v 0.560762 -0.396564 0.333334
v 0.619231 -0.407884 0.333334
v 0.560762 -0.396564 0.555556
v 0.619231 -0.407884 0.555556
v 0.443825 -0.373925 0.333334
v 0.443825 -0.373925 0.555556
v 0.443825 -0.373925 0.407408
v 0.443825 -0.373925 0.481482
v 0.619231 -0.407884 0.629630
v 0.560762 -0.396564 0.629630
v 0.619231 -0.407884 0.407408
v 0.619231 -0.407884 0.481482
v 0.560762 -0.396564 0.407408
v 0.560762 -0.396564 0.481482
v 0.619231 -0.407884 0.259260
v 0.560762 -0.396564 0.259260
v 0.736168 -0.430523 0.407408
v 0.736168 -0.430523 0.481482
v -0.663399 0.946890 -0.920060
v -0.663399 0.946890 0.920060
v -0.582179 -0.275645 -0.920060
v -0.582180 -0.275645 0.920060
v -0.582179 -0.275645 -0.715602
v -0.582179 -0.275645 -0.511144
v -0.582179 -0.275645 -0.306687
v -0.582179 -0.275645 -0.102229
v -0.582179 -0.275645 0.102229
v -0.582179 -0.275645 0.306687
v -0.582180 -0.275645 0.511144
v -0.582180 -0.275645 0.715602
v -0.763179 0.940261 -0.920060
v -0.763179 0.940261 0.920060
v -0.681959 -0.282274 -0.920060
v -0.681960 -0.282274 0.920060
v -0.681959 -0.282274 -0.715602
v -0.681959 -0.282274 -0.511144
v -0.681959 -0.282274 -0.306687
v -0.681959 -0.282274 -0.102229
v -0.681959 -0.282274 0.102229
v -0.681960 -0.282274 0.306687
v -0.681960 -0.282274 0.511144
v -0.681960 -0.282274 0.715602
vn 0.000000 -1.000000 0.000000
vn 0.000000 1.000000 0.000000
vn -0.000000 -0.000000 1.000000
vn -1.000000 -0.000000 -0.000000
vn 0.000000 0.000000 -1.000000
vn 1.000000 -0.000000 0.000000
vn 0.997800 0.066300 0.000000
vn 0.190100 0.981800 0.000000
vn 0.981800 -0.190100 0.000000
vn -0.981800 0.190100 -0.000000
vn -0.066300 0.997800 0.000000
vn 0.066300 -0.997800 0.000000
g Cube_Cube_Main
usemtl Main
s off
f 12//1 3//1 4//1
f 6//2 5//2 14//2
f 16//3 8//3 39//3
f 14//3 5//3 9//3
f 5//4 6//4 10//4
f 15//5 11//5 4//5
f 15//5 10//5 6//5
f 9//4 10//4 4//4
f 16//3 9//3 3//3
f 7//6 8//6 2//6
f 8//3 16//3 12//3
f 1//5 11//5 15//5
f 51//7 275//7 276//7
f 2//1 12//1 11//1
f 52//8 20//8 44//8
f 7//6 24//6 8//6
f 60//8 37//8 18//8
f 188//8 187//8 38//8
f 192//8 191//8 39//8
f 200//8 199//8 40//8
f 90//8 41//8 40//8
f 96//8 42//8 41//8
f 96//8 104//8 43//8
f 112//8 44//8 43//8
f 29//8 53//8 21//8
f 53//8 54//8 22//8
f 54//8 55//8 23//8
f 23//8 55//8 56//8
f 56//8 57//8 25//8
f 25//8 57//8 161//8
f 27//8 26//8 164//8
f 27//8 59//8 165//8
f 30//8 61//8 53//8
f 56//8 64//8 181//8
f 232//8 168//8 66//8
f 224//8 170//8 68//8
f 31//8 69//8 61//8
f 69//8 70//8 62//8
f 70//8 71//8 63//8
f 71//8 72//8 64//8
f 190//8 72//8 189//8
f 174//8 76//8 191//8
f 32//8 77//8 69//8
f 78//8 79//8 71//8
f 72//8 80//8 194//8
f 176//8 82//8 195//8
f 208//8 178//8 83//8
f 180//8 84//8 199//8
f 33//8 85//8 77//8
f 85//8 86//8 78//8
f 78//8 86//8 87//8
f 87//8 88//8 80//8
f 88//8 89//8 81//8
f 102//9 158//9 157//9
f 103//9 159//9 158//9
f 104//9 160//9 159//9
f 34//8 91//8 85//8
f 92//8 93//8 87//8
f 94//8 95//8 89//8
f 89//3 149//3 145//3
f 84//5 148//5 152//5
f 89//3 95//3 153//3
f 35//8 97//8 91//8
f 97//8 98//8 92//8
f 98//8 99//8 93//8
f 93//8 99//8 100//8
f 100//8 101//8 95//8
f 96//5 90//5 152//5
f 101//3 157//3 153//3
f 104//5 96//5 156//5
f 36//8 105//8 97//8
f 106//8 107//8 99//8
f 108//8 109//8 101//8
f 109//8 110//8 102//8
f 110//8 111//8 103//8
f 111//8 112//8 104//8
f 19//8 45//8 105//8
f 45//8 46//8 106//8
f 106//8 46//8 47//8
f 47//8 48//8 108//8
f 48//8 49//8 109//8
f 49//8 50//8 110//8
f 50//8 51//8 111//8
f 51//8 52//8 112//8
f 148//10 179//10 147//10
f 147//10 178//10 146//10
f 146//10 175//10 145//10
f 202//8 200//8 76//8
f 202//8 204//8 199//8
f 198//8 201//8 173//8
f 201//8 202//8 174//8
f 198//8 197//8 203//8
f 201//8 203//8 204//8
f 197//8 83//8 179//8
f 179//8 180//8 204//8
f 206//8 208//8 197//8
f 196//8 195//8 207//8
f 205//8 207//8 208//8
f 195//8 82//8 177//8
f 207//8 177//8 178//8
f 210//8 196//8 74//8
f 212//8 195//8 196//8
f 194//8 209//8 171//8
f 171//8 209//8 210//8
f 193//8 211//8 209//8
f 211//8 212//8 210//8
f 81//8 175//8 211//8
f 175//8 176//8 212//8
f 214//8 192//8 68//8
f 214//8 216//8 191//8
f 213//8 214//8 170//8
f 213//8 215//8 216//8
f 173//8 174//8 216//8
f 190//8 217//8 167//8
f 217//8 218//8 168//8
f 189//8 219//8 217//8
f 217//8 219//8 220//8
f 73//8 171//8 219//8
f 171//8 172//8 220//8
f 222//8 188//8 60//8
f 222//8 224//8 187//8
f 186//8 221//8 165//8
f 221//8 222//8 166//8
f 186//8 185//8 223//8
f 221//8 223//8 224//8
f 185//8 67//8 169//8
f 169//8 170//8 224//8
f 226//8 186//8 59//8
f 226//8 228//8 185//8
f 184//8 225//8 163//8
f 225//8 226//8 164//8
f 184//8 183//8 227//8
f 225//8 227//8 228//8
f 162//8 230//8 184//8
f 230//8 232//8 183//8
f 57//8 182//8 229//8
f 161//8 229//8 230//8
f 181//8 231//8 229//8
f 231//8 232//8 230//8
f 65//8 167//8 231//8
f 167//8 168//8 232//8
f 275//11 287//11 288//11
f 50//7 274//7 275//7
f 49//7 273//7 274//7
f 48//7 272//7 273//7
f 48//7 47//7 271//7
f 47//7 46//7 270//7
f 46//7 45//7 269//7
f 45//7 19//7 267//7
f 20//7 268//7 266//7
f 13//7 265//7 267//7
f 52//7 276//7 268//7
f 14//7 266//7 265//7
f 274//11 286//11 287//11
f 274//11 273//11 285//11
f 272//11 284//11 285//11
f 271//11 283//11 284//11
f 270//11 282//11 283//11
f 270//11 269//11 281//11
f 269//11 267//11 279//11
f 268//5 280//5 278//5
f 267//3 265//3 277//3
f 276//11 288//11 280//11
f 266//12 278//12 277//12
f 31//5 7//5 15//5
f 11//1 12//1 4//1
f 13//2 6//2 14//2
f 20//3 14//3 16//3
f 16//3 42//3 43//3
f 44//3 20//3 16//3
f 16//3 43//3 44//3
f 16//3 39//3 40//3
f 16//3 41//3 42//3
f 38//3 39//3 8//3
f 8//3 18//3 37//3
f 16//3 40//3 41//3
f 8//3 37//3 38//3
f 16//3 14//3 9//3
f 9//4 5//4 10//4
f 10//5 15//5 4//5
f 13//5 15//5 6//5
f 3//4 9//4 4//4
f 12//3 16//3 3//3
f 1//6 7//6 2//6
f 2//3 8//3 12//3
f 7//5 1//5 15//5
f 52//7 51//7 276//7
f 1//1 2//1 11//1
f 112//8 52//8 44//8
f 21//6 7//6 17//6
f 28//6 18//6 8//6
f 8//6 27//6 28//6
f 8//6 25//6 26//6
f 7//6 23//6 24//6
f 7//6 21//6 22//6
f 26//6 27//6 8//6
f 23//6 7//6 22//6
f 8//6 24//6 25//6
f 28//8 60//8 18//8
f 188//8 37//8 60//8
f 187//8 68//8 38//8
f 38//8 37//8 188//8
f 192//8 38//8 68//8
f 191//8 76//8 39//8
f 39//8 38//8 192//8
f 200//8 39//8 76//8
f 199//8 84//8 40//8
f 40//8 39//8 200//8
f 84//8 90//8 40//8
f 90//8 96//8 41//8
f 42//8 96//8 43//8
f 104//8 112//8 43//8
f 17//8 29//8 21//8
f 21//8 53//8 22//8
f 22//8 54//8 23//8
f 24//8 23//8 56//8
f 24//8 56//8 25//8
f 162//8 26//8 25//8
f 25//8 161//8 162//8
f 162//8 58//8 26//8
f 163//8 164//8 26//8
f 27//8 164//8 59//8
f 26//8 58//8 163//8
f 166//8 28//8 27//8
f 27//8 165//8 166//8
f 166//8 60//8 28//8
f 29//8 30//8 53//8
f 182//8 57//8 56//8
f 56//8 181//8 182//8
f 181//8 64//8 65//8
f 183//8 232//8 66//8
f 187//8 224//8 68//8
f 30//8 31//8 61//8
f 61//8 69//8 62//8
f 62//8 70//8 63//8
f 63//8 71//8 64//8
f 190//8 65//8 64//8
f 72//8 73//8 189//8
f 72//8 190//8 64//8
f 216//8 174//8 191//8
f 31//8 32//8 69//8
f 70//8 78//8 71//8
f 194//8 73//8 72//8
f 80//8 193//8 194//8
f 193//8 80//8 81//8
f 212//8 176//8 195//8
f 197//8 208//8 83//8
f 204//8 180//8 199//8
f 32//8 33//8 77//8
f 77//8 85//8 78//8
f 79//8 78//8 87//8
f 79//8 87//8 80//8
f 80//8 88//8 81//8
f 101//9 102//9 157//9
f 102//9 103//9 158//9
f 103//9 104//9 159//9
f 33//8 34//8 85//8
f 86//8 92//8 87//8
f 88//8 94//8 89//8
f 81//3 89//3 145//3
f 90//5 84//5 152//5
f 149//3 89//3 153//3
f 34//8 35//8 91//8
f 91//8 97//8 92//8
f 92//8 98//8 93//8
f 94//8 93//8 100//8
f 94//8 100//8 95//8
f 156//5 96//5 152//5
f 95//3 101//3 153//3
f 160//5 104//5 156//5
f 35//8 36//8 97//8
f 98//8 106//8 99//8
f 100//8 108//8 101//8
f 101//8 109//8 102//8
f 102//8 110//8 103//8
f 103//8 111//8 104//8
f 36//8 19//8 105//8
f 105//8 45//8 106//8
f 107//8 106//8 47//8
f 107//8 47//8 108//8
f 108//8 48//8 109//8
f 109//8 49//8 110//8
f 110//8 50//8 111//8
f 111//8 51//8 112//8
f 180//10 148//10 84//10
f 179//10 83//10 147//10
f 148//10 180//10 179//10
f 178//10 147//10 83//10
f 177//10 82//10 146//10
f 146//10 178//10 177//10
f 176//10 146//10 82//10
f 175//10 81//10 145//10
f 146//10 176//10 175//10
f 174//8 202//8 76//8
f 200//8 202//8 199//8
f 75//8 198//8 173//8
f 173//8 201//8 174//8
f 201//8 198//8 203//8
f 202//8 201//8 204//8
f 203//8 197//8 179//8
f 203//8 179//8 204//8
f 198//8 206//8 197//8
f 205//8 196//8 207//8
f 206//8 205//8 208//8
f 207//8 195//8 177//8
f 208//8 207//8 178//8
f 172//8 210//8 74//8
f 210//8 212//8 196//8
f 73//8 194//8 171//8
f 172//8 171//8 210//8
f 194//8 193//8 209//8
f 209//8 211//8 210//8
f 193//8 81//8 211//8
f 211//8 175//8 212//8
f 170//8 214//8 68//8
f 192//8 214//8 191//8
f 169//8 213//8 170//8
f 214//8 213//8 216//8
f 215//8 173//8 216//8
f 65//8 190//8 167//8
f 167//8 217//8 168//8
f 190//8 189//8 217//8
f 218//8 217//8 220//8
f 189//8 73//8 219//8
f 219//8 171//8 220//8
f 166//8 222//8 60//8
f 188//8 222//8 187//8
f 59//8 186//8 165//8
f 165//8 221//8 166//8
f 221//8 186//8 223//8
f 222//8 221//8 224//8
f 223//8 185//8 169//8
f 223//8 169//8 224//8
f 164//8 226//8 59//8
f 186//8 226//8 185//8
f 58//8 184//8 163//8
f 163//8 225//8 164//8
f 225//8 184//8 227//8
f 226//8 225//8 228//8
f 58//8 162//8 184//8
f 184//8 230//8 183//8
f 161//8 57//8 229//8
f 162//8 161//8 230//8
f 182//8 181//8 229//8
f 229//8 231//8 230//8
f 181//8 65//8 231//8
f 231//8 167//8 232//8
f 276//11 275//11 288//11
f 51//7 50//7 275//7
f 50//7 49//7 274//7
f 49//7 48//7 273//7
f 272//7 48//7 271//7
f 271//7 47//7 270//7
f 270//7 46//7 269//7
f 269//7 45//7 267//7
f 14//7 20//7 266//7
f 19//7 13//7 267//7
f 20//7 52//7 268//7
f 13//7 14//7 265//7
f 275//11 274//11 287//11
f 286//11 274//11 285//11
f 273//11 272//11 285//11
f 272//11 271//11 284//11
f 271//11 270//11 283//11
f 282//11 270//11 281//11
f 281//11 269//11 279//11
f 266//5 268//5 278//5
f 279//3 267//3 277//3
f 268//11 276//11 280//11
f 265//12 266//12 277//12
f 7//5 29//5 17//5
f 7//5 31//5 30//5
f 15//5 33//5 32//5
f 15//5 35//5 34//5
f 15//5 13//5 19//5
f 15//5 34//5 33//5
f 15//5 19//5 36//5
f 32//5 31//5 15//5
f 7//5 30//5 29//5
f 15//5 36//5 35//5
g Cube_Cube_Screen
usemtl Screen
f 149//8 150//8 146//8
f 150//8 151//8 147//8
f 147//8 151//8 152//8
f 153//8 154//8 150//8
f 154//8 155//8 151//8
f 155//8 156//8 152//8
f 157//8 158//8 154//8
f 158//8 159//8 155//8
f 155//8 159//8 160//8
f 277//7 278//7 285//7
f 145//8 149//8 146//8
f 146//8 150//8 147//8
f 148//8 147//8 152//8
f 149//8 153//8 150//8
f 150//8 154//8 151//8
f 151//8 155//8 152//8
f 153//8 157//8 154//8
f 154//8 158//8 155//8
f 156//8 155//8 160//8
f 281//7 279//7 277//7
f 277//7 282//7 281//7
f 277//7 285//7 284//7
f 277//7 283//7 282//7
f 286//7 285//7 278//7
f 278//7 280//7 288//7
f 278//7 287//7 286//7
f 277//7 284//7 283//7
f 287//7 278//7 288//7
g Cube_Cube_Big_Button
usemtl Big_Button
f 168//9 237//9 233//9
f 228//9 264//9 246//9
f 218//5 261//5 237//5
f 206//10 198//10 252//10
f 75//10 173//10 244//10
f 227//9 263//9 264//9
f 220//5 262//5 261//5
f 205//10 206//10 254//10
f 220//5 172//5 241//5
f 213//3 169//3 240//3
f 198//3 75//3 236//3
f 213//3 255//3 256//3
f 183//5 66//5 233//5
f 183//9 245//9 263//9
f 215//3 256//3 244//3
f 205//10 253//10 251//10
f 185//3 246//3 234//3
f 67//9 234//9 240//9
f 196//5 251//5 235//5
f 172//10 74//10 235//10
f 264//8 239//8 234//8
f 241//8 235//8 247//8
f 260//8 243//8 236//8
f 243//8 254//8 252//8
f 251//8 253//8 242//8
f 242//8 253//8 254//8
f 250//8 255//8 240//8
f 250//8 249//8 256//8
f 249//8 236//8 244//8
f 258//8 250//8 234//8
f 258//8 260//8 249//8
f 233//8 248//8 257//8
f 257//8 258//8 239//8
f 248//8 247//8 259//8
f 257//8 259//8 260//8
f 247//8 235//8 242//8
f 242//8 243//8 260//8
f 237//8 261//8 248//8
f 261//8 262//8 247//8
f 233//8 238//8 263//8
f 263//8 238//8 239//8
f 66//9 168//9 233//9
f 185//9 228//9 246//9
f 168//5 218//5 237//5
f 254//10 206//10 252//10
f 236//10 75//10 244//10
f 228//9 227//9 264//9
f 218//5 220//5 261//5
f 253//10 205//10 254//10
f 262//5 220//5 241//5
f 255//3 213//3 240//3
f 252//3 198//3 236//3
f 215//3 213//3 256//3
f 245//5 183//5 233//5
f 227//9 183//9 263//9
f 173//3 215//3 244//3
f 196//10 205//10 251//10
f 67//3 185//3 234//3
f 169//9 67//9 240//9
f 74//5 196//5 235//5
f 241//10 172//10 235//10
f 246//8 264//8 234//8
f 262//8 241//8 247//8
f 249//8 260//8 236//8
f 236//8 243//8 252//8
f 235//8 251//8 242//8
f 243//8 242//8 254//8
f 234//8 250//8 240//8
f 255//8 250//8 256//8
f 256//8 249//8 244//8
f 239//8 258//8 234//8
f 250//8 258//8 249//8
f 238//8 233//8 257//8
f 238//8 257//8 239//8
f 257//8 248//8 259//8
f 258//8 257//8 260//8
f 259//8 247//8 242//8
f 259//8 242//8 260//8
f 233//8 237//8 248//8
f 248//8 261//8 247//8
f 245//8 233//8 263//8
f 264//8 263//8 239//8
g Cube_Cube_Button_Blue
usemtl Button_Blue
f 98//3 114//3 116//3
f 115//8 116//8 114//8
f 105//5 115//5 113//5
f 105//10 106//10 116//10
f 97//9 113//9 114//9
f 106//3 98//3 116//3
f 113//8 115//8 114//8
f 97//5 105//5 113//5
f 115//10 105//10 116//10
f 98//9 97//9 114//9
g Cube_Cube_Button_Green
usemtl Button_Green
f 100//3 122//3 124//3
f 123//8 124//8 122//8
f 99//5 107//5 123//5
f 107//10 108//10 124//10
f 99//9 121//9 122//9
f 108//3 100//3 124//3
f 121//8 123//8 122//8
f 121//5 99//5 123//5
f 123//10 107//10 124//10
f 100//9 99//9 122//9
g Cube_Cube_Button_Yellow
usemtl Button_Yellow
f 86//3 118//3 120//3
f 119//8 120//8 118//8
f 91//5 119//5 117//5
f 91//10 92//10 120//10
f 85//9 117//9 118//9
f 92//3 86//3 120//3
f 117//8 119//8 118//8
f 85//5 91//5 117//5
f 119//10 91//10 120//10
f 86//9 85//9 118//9
g Cube_Cube_Button_White
usemtl Button_White
f 88//3 126//3 128//3
f 127//8 128//8 126//8
f 93//5 127//5 125//5
f 93//10 94//10 128//10
f 87//9 125//9 126//9
f 94//3 88//3 128//3
f 125//8 127//8 126//8
f 87//5 93//5 125//5
f 127//10 93//10 128//10
f 88//9 87//9 126//9
g Cube_Cube_Button_Orange
usemtl Button_Orange
f 72//3 130//3 132//3
f 131//8 132//8 130//8
f 79//5 131//5 129//5
f 79//10 80//10 132//10
f 71//9 129//9 130//9
f 80//3 72//3 132//3
f 129//8 131//8 130//8
f 71//5 79//5 129//5
f 131//10 79//10 132//10
f 72//9 71//9 130//9
g Cube_Cube_Button_Violet
usemtl Button_Violet
f 70//3 134//3 136//3
f 135//8 136//8 134//8
f 77//5 135//5 133//5
f 77//10 78//10 136//10
f 69//9 133//9 134//9
f 78//3 70//3 136//3
f 133//8 135//8 134//8
f 69//5 77//5 133//5
f 135//10 77//10 136//10
f 70//9 69//9 134//9
g Cube_Cube_Button_Grey
usemtl Button_Grey
f 63//10 64//10 144//10
f 61//5 141//5 137//5
f 64//3 56//3 140//3
f 141//8 142//8 138//8
f 142//8 143//8 139//8
f 143//8 144//8 140//8
f 63//10 143//10 142//10
f 61//10 62//10 142//10
f 55//9 139//9 140//9
f 54//9 138//9 139//9
f 53//9 137//9 138//9
f 143//10 63//10 144//10
f 53//5 61//5 137//5
f 144//3 64//3 140//3
f 137//8 141//8 138//8
f 138//8 142//8 139//8
f 139//8 143//8 140//8
f 62//10 63//10 142//10
f 141//10 61//10 142//10
f 56//9 55//9 140//9
f 55//9 54//9 139//9
f 54//9 53//9 138//9
